:FULLY-SPECIFIED
:FORCE-ALL-JOINTS-BE-3DOF
:DEGREES
645
root 5.60737 16.4557 -2.81385 9.20433 19.3907 -3.56159
lfemur -10.697 13.3462 -18.8158
ltibia 26.4199 -0 0
lfoot -29.0403 9.15615 0.0436205
ltoes 24.8182 -0 0
rfemur -39.8125 -16.3239 15.4855
rtibia 55.1476 -0 0
rfoot 4.3198 -3.02092 -0.088798
rtoes -2.98926 0 0
lowerback -1.53774 -2.81736 -2.38685
upperback -2.4753 -3.71964 2.09313
thorax -1.34331 -1.79756 3.46276
lowerneck -9.04876 -6.26864 0.950623
upperneck 11.2627 -9.1127 2.93205
head 5.01888 -4.15226 0.0361544
lclavicle -3.18967e-14 -1.45776e-14 0
lhumerus -23.1499 -61.8517 91.5706
lradius 64.0479 -0 0
lwrist 18.2849 0 0
lhand -8.03847 -0.652576 0.00977997
lfingers 7.12502 0 0
lthumb 14.246 24.5826 0.00890155
rclavicle -3.18967e-14 -1.45776e-14 0
rhumerus -8.64132 6.55045 -55.5796
rradius 81.4098 -0 0
rwrist -35.6867 0 0
rhand -26.3743 -27.5349 -0.0326091
rfingers 7.12502 0 0
rthumb -3.31618 -54.1808 -0.0329967
646
root 5.59515 16.4291 -2.76028 9.00696 18.4944 -3.45235
lfemur -10.3547 12.8966 -18.2488
ltibia 25.6753 -0 0
lfoot -28.1397 8.71952 0.0306604
ltoes 24.1821 -0 0
rfemur -38.5731 -15.8409 14.9199
rtibia 53.6908 -0 0
rfoot 4.13659 -3.26571 -0.0936944
rtoes -2.90482 0 0
lowerback -1.54736 -2.74111 -2.28326
upperback -2.43466 -3.61789 2.05069
thorax -1.30737 -1.74846 3.3598
lowerneck -8.81112 -6.06025 0.94228
upperneck 10.9204 -8.81334 2.82269
head 4.86984 -4.01516 0.0266831
lclavicle -3.2764e-14 -1.3631e-14 0
lhumerus -22.0575 -62.0637 87.4073
lradius 62.6061 -0 0
lwrist 17.7751 0 0
lhand -7.81473 -0.655658 0.00920599
lfingers 7.12502 0 0
lthumb 13.8332 23.8659 0.00841395
rclavicle -3.2764e-14 -1.3631e-14 0
rhumerus -8.72043 6.45984 -54.0046
rradius 79.2573 -0 0
rwrist -34.5545 0 0
rhand -25.6653 -26.8507 -0.0357817
rfingers 7.12502 0 0
rthumb -3.25157 -52.8383 -0.0364957
647
root 5.58293 16.4026 -2.70672 8.95892 17.8038 -3.3679
lfemur -10.173 12.6576 -17.9517
ltibia 25.291 -0 0
lfoot -27.6176 8.42291 0.0187631
ltoes 23.8083 -0 0
rfemur -37.8973 -15.6143 14.6318
rtibia 52.8894 -0 0
rfoot 3.95572 -3.5145 -0.0988838
rtoes -2.83065 0 0
lowerback -1.56562 -2.70367 -2.22629
upperback -2.4177 -3.56778 2.02103
thorax -1.28599 -1.72438 3.29596
lowerneck -8.68266 -5.93408 0.936937
upperneck 10.681 -8.632 2.76997
head 4.77365 -3.93237 0.0263884
lclavicle -3.36313e-14 -1.26844e-14 0
lhumerus -21.4931 -62.2726 84.9699
lradius 61.8561 -0 0
lwrist 17.5099 0 0
lhand -7.67391 -0.645943 0.00946219
lfingers 7.12502 0 0
lthumb 13.618 23.4747 0.00865617
rclavicle -3.36313e-14 -1.26844e-14 0
rhumerus -9.0102 6.37368 -53.1267
rradius 77.7629 -0 0
rwrist -33.7563 0 0
rhand -25.272 -26.5655 -0.0395853
rfingers 7.12502 0 0
rthumb -3.22023 -52.1791 -0.0405598
648
root 5.57071 16.376 -2.65315 9.08878 17.3529 -3.31249
lfemur -10.181 12.6704 -17.9766
ltibia 25.3363 -0 0
lfoot -27.5515 8.29036 0.0079663
ltoes 23.7521 -0 0
rfemur -37.9006 -15.6969 14.6716
rtibia 52.8982 -0 0
rfoot 3.77671 -3.77534 -0.104977
rtoes -2.76839 0 0
lowerback -1.59532 -2.71247 -2.22454
upperback -2.42956 -3.57914 2.00678
thorax -1.28196 -1.73008 3.27867
lowerneck -8.68472 -5.90543 0.935466
upperneck 10.5635 -8.59083 2.7845
head 4.74023 -3.914 0.0370084
lclavicle -3.44986e-14 -1.17378e-14 0
lhumerus -21.5324 -62.5966 84.8601
lradius 61.9746 -0 0
lwrist 17.5374 0 0
lhand -7.63142 -0.621005 0.0107108
lfingers 7.12502 0 0
lthumb 13.639 23.474 0.0097754
rclavicle -3.44986e-14 -1.17378e-14 0
rhumerus -9.5594 6.29908 -53.1093
rradius 77.1342 -0 0
rwrist -33.3605 0 0
rhand -25.259 -26.7621 -0.0442028
rfingers 7.12502 0 0
rthumb -3.22929 -52.3635 -0.0453273
649
root 5.55849 16.3494 -2.59959 9.43041 17.1763 -3.29018
lfemur -10.4128 12.9804 -18.3835
ltibia 25.8882 -0 0
lfoot -28.0253 8.34902 -0.00173784
ltoes 24.0718 -0 0
rfemur -38.7095 -16.1469 15.101
rtibia 53.8651 -0 0
rfoot 3.59678 -4.0572 -0.112493
rtoes -2.7189 0 0
lowerback -1.6394 -2.77602 -2.28821
upperback -2.47586 -3.66324 2.01042
thorax -1.29834 -1.77102 3.31612
lowerneck -8.84121 -5.99151 0.938586
upperneck 10.5875 -8.71449 2.87894
head 4.78034 -3.97143 0.060793
lclavicle -3.53659e-14 -1.07912e-14 0
lhumerus -22.3046 -63.0488 87.6018
lradius 63.1206 -0 0
lwrist 17.9112 0 0
lhand -7.70392 -0.577427 0.0131158
lfingers 7.12502 0 0
lthumb 13.9403 23.935 0.0119134
rclavicle -3.53659e-14 -1.07912e-14 0
rhumerus -10.4275 6.23696 -54.1116
rradius 77.537 -0 0
rwrist -33.4344 0 0
rhand -25.696 -27.5328 -0.0497948
rfingers 7.12502 0 0
rthumb -3.28658 -53.5486 -0.0508707
650
root 5.54627 16.3228 -2.54602 10.0263 17.312 -3.30501
lfemur -10.9116 13.6403 -19.2458
ltibia 27.0352 -0 0
lfoot -29.1337 8.63223 -0.0103107
ltoes 24.8318 -0 0
rfemur -40.469 -17.0318 16.0001
rtibia 55.9267 -0 0
rfoot 3.41006 -4.36959 -0.121739
rtoes -2.68192 0 0
lowerback -1.70094 -2.90466 -2.43019
upperback -2.56303 -3.8338 2.03434
thorax -1.33871 -1.85383 3.4179
lowerneck -9.18047 -6.21301 0.94676
upperneck 10.7749 -9.03236 3.06949
head 4.90638 -4.11832 0.10084
lclavicle -3.62333e-14 -9.84458e-15 0
lhumerus -24.0376 -63.4495 93.539
lradius 65.4205 -0 0
lwrist 18.695 0 0
lhand -7.91047 -0.51017 0.0168471
lfingers 7.12502 0 0
lthumb 14.5743 24.9402 0.0152039
rclavicle -3.62333e-14 -9.84458e-15 0
rhumerus -11.6896 6.1785 -56.2843
rradius 79.0713 -0 0
rwrist -34.0457 0 0
rhand -26.6615 -28.9845 -0.0564652
rfingers 7.12502 0 0
rthumb -3.40112 -55.8829 -0.0571229
651
root 5.53405 16.2962 -2.49246 10.9313 17.8045 -3.36106
lfemur -11.7343 14.7116 -20.6569
ltibia 28.8809 -0 0
lfoot -30.9857 9.18293 -0.0175534
ltoes 26.1045 -0 0
rfemur -43.3435 -18.4294 17.4766
rtibia 59.1882 -0 0
rfoot 3.20677 -4.72197 -0.13268
rtoes -2.65573 0 0
lowerback -1.78311 -3.11137 -2.66754
upperback -2.69863 -4.10815 2.08081
thorax -1.4074 -1.98692 3.59575
lowerneck -9.73743 -6.59583 0.960072
upperneck 11.1508 -9.5808 3.37762
head 5.13331 -4.3718 0.161486
lclavicle -3.71006e-14 -8.89799e-15 0
lhumerus -27.1406 -63.4065 102.504
lradius 68.9369 -0 0
lwrist 19.966 0 0
lhand -8.27379 -0.411841 0.0220854
lfingers 7.12502 0 0
lthumb 15.6063 26.5866 0.0197647
rclavicle -3.71006e-14 -8.89799e-15 0
rhumerus -13.4421 6.10192 -59.7498
rradius 81.7418 -0 0
rwrist -35.2636 0 0
rhand -28.2456 -31.2419 -0.0642068
rfingers 7.12502 0 0
rthumb -3.5837 -59.4839 -0.06378
652
root 5.52183 16.2696 -2.43889 17.7807 5.81363 0.36883
lfemur -17.4017 24.6737 -28.9211
ltibia 36.9351 0 0
lfoot -37.114 12.3006 0
ltoes 20.3595 0 0
rfemur -62.6914 -30.2631 36.2973
rtibia 67.9832 0 0
rfoot -8.34533 -3.94159 0
rtoes 2.98849 0 0
lowerback -0.591138 -4.03337 -5.88217
upperback -1.80897 -5.40325 -0.407164
thorax -1.03332 -2.63444 2.85238
lowerneck -9.69647 -7.30093 -0.573404
upperneck 3.11671 -10.1537 7.38745
head 3.18248 -4.7859 1.91621
lclavicle -3.79679e-14 -7.95139e-15 0
lhumerus -44.5367 -71.1192 127.009
lradius 73.1505 0 0
lwrist 24.9573 0 0
lhand -4.93506 3.74556 0
lfingers 7.12502 0 0
lthumb 20.8558 32.6446 0
rclavicle -3.79679e-14 -7.95139e-15 0
rhumerus -41.6572 -5.62375 -76.5216
rradius 60.334 0 0
rwrist -16.2497 0 0
rhand -29.3753 -48.1698 0
rfingers 7.12502 0 0
rthumb -2.71414 -798.132 0
653
root 5.51646 16.2518 -2.31548 19.2448 5.7716 0.412625
lfemur -19.2488 26.6464 -31.5253
ltibia 40.855 -0 0
lfoot -38.475 12.7235 -0.188759
ltoes 21.0545 -0 0
rfemur -67.1574 -31.7354 39.4727
rtibia 72.5924 -0 0
rfoot -9.85136 -4.4876 0.0117854
rtoes 3.22069 -0 0
lowerback -0.675763 -4.47631 -6.17309
upperback -1.96877 -5.99457 -0.364386
thorax -1.11491 -2.92721 3.05566
lowerneck -10.5602 -7.8012 -0.585104
upperneck 3.30067 -10.8305 7.82453
head 3.41469 -5.11523 2.01936
lclavicle -3.5431e-14 -7.89459e-15 0
lhumerus -55.697 -68.4031 136.381
lradius 77.9385 -0 0
lwrist 27.0607 0 0
lhand -5.52098 3.96829 -0.000987881
lfingers 7.12502 0 0
lthumb 22.3874 35.1245 -0.00134874
rclavicle -3.5431e-14 -7.89459e-15 0
rhumerus -45.155 -6.09162 -80.2868
rradius 64.2418 -0 0
rwrist -17.7628 0 0
rhand -31.5858 -51.7197 0.00210716
rfingers 7.12502 0 0
rthumb -2.82789 -82.6003 0.00197918
